<svg width="78" height="58" viewBox="0 0 78 58" fill="none" xmlns="http://www.w3.org/2000/svg">
<path fill-rule="evenodd" clip-rule="evenodd" d="M28.989 33.5194C24.0968 34.8354 20.1694 35.7274 14.8688 36.7265C13.079 37.064 11.5948 37.3666 11.5707 37.399C11.5464 37.4315 11.3778 38.2475 11.1956 39.2121C11.0135 40.1768 10.6627 41.4615 10.4159 42.0666L9.96729 43.167L8.16085 43.3686C6.11042 43.5974 5.65205 43.8391 5.2442 44.9069C4.80236 46.0636 4.96102 47.1396 5.71271 48.0834C5.9771 48.4155 6.24375 48.5366 6.82532 48.5884C7.24596 48.626 12.8098 48.1243 19.1895 47.4736L30.7889 46.2908L31.0555 46.78C32.4324 49.3068 34.2535 50.8223 36.7188 51.4934C37.6568 51.7488 40.589 51.7479 41.5293 51.4922C43.9894 50.8227 45.8121 49.305 47.188 46.78L47.4547 46.2908L59.0541 47.4736C65.4338 48.1243 70.9976 48.626 71.4182 48.5884C71.9979 48.5368 72.2683 48.4146 72.5354 48.0834C73.5157 46.8683 73.4448 44.9729 72.3823 43.9945C72.0137 43.6549 71.6536 43.5512 70.3603 43.4114C69.495 43.3179 68.7237 43.213 68.6464 43.1785C68.3579 43.0494 67.6275 40.8698 67.311 39.1933C67.1309 38.2389 66.965 37.4333 66.9423 37.4028C66.9197 37.3723 65.2256 37.0272 63.1776 36.6359C59.1726 35.8707 55.4888 35.0486 51.4545 34.0199C49.0743 33.413 48.8005 33.3789 46.9214 33.4569C45.4015 33.5201 44.6823 33.6337 43.9251 33.9303C42.5369 34.4739 41.031 35.5718 40.0699 36.7407L39.2551 37.7318L38.4218 36.7154C37.5155 35.6098 35.7422 34.3465 34.3887 33.8419C33.5949 33.5461 29.7449 33.3162 28.989 33.5194ZM33.0544 36.5418C33.8361 36.725 34.5921 37.0498 35.2698 37.4736C36.3239 38.1328 37.5606 39.3143 37.9935 40.6335C38.1539 41.1226 40.3148 41.2708 40.5939 40.6335C40.997 39.4315 41.8826 38.3595 43.168 37.5376C44.6872 36.566 45.4423 36.3594 47.388 36.3827C48.749 36.399 49.568 36.5366 51.8545 37.1333C55.3967 38.0576 57.8871 38.6157 61.5873 39.3148C63.2005 39.6194 64.6635 39.929 64.8385 40.0028C65.0864 40.1073 65.236 40.4403 65.519 41.5175C65.8316 42.7079 65.8519 42.8982 65.6659 42.8982C65.5474 42.8982 61.048 42.4558 55.6675 41.9152C45.8936 40.933 45.8841 40.9325 45.3153 41.2708C44.8151 41.5681 44.6887 41.7713 44.2753 42.9423C43.355 45.5484 41.9744 46.5048 39.1255 46.5096C36.3757 46.5143 34.8392 45.5029 34.053 43.1702C33.661 42.0074 33.268 41.4176 32.6886 41.1226C32.4149 40.9832 29.8477 41.1846 22.5577 41.9171C17.1872 42.4567 12.7497 42.8982 12.6963 42.8982C12.6429 42.8982 12.7097 42.5524 12.8445 42.1295C12.9793 41.7068 13.1327 41.0972 13.1854 40.7748C13.2446 40.4128 13.3911 40.1337 13.5688 40.0446C13.727 39.9652 14.8464 39.7206 16.0563 39.5011C18.9844 38.9696 23.2907 38.0192 26.3224 37.2351C30.3552 36.192 31.1937 36.1056 33.0544 36.5418Z" fill="#E2E7E9"/>
<path fill-rule="evenodd" clip-rule="evenodd" d="M25.8098 34.3485C26.8384 34.0895 27.8894 33.8152 28.989 33.5194C29.7449 33.3162 33.5949 33.5461 34.3887 33.8419C35.7422 34.3465 37.5155 35.6098 38.4218 36.7154L39.2551 37.7318L40.0699 36.7407C41.031 35.5718 42.5369 34.4739 43.9251 33.9303C44.6823 33.6337 45.4015 33.5201 46.9214 33.4569C48.8005 33.3789 49.0743 33.413 51.4545 34.0199C51.9653 34.1501 52.4702 34.2771 52.9711 34.401C52.8571 33.7908 52.6716 33.1943 52.4173 32.6242C51.9606 31.6003 51.2924 30.6846 50.4565 29.9373C50.2961 28.7304 49.9393 27.5578 49.4004 26.4659C50.9114 23.4749 52.0145 20.2947 52.6804 17.0105C53.1606 14.5186 53.4764 11.1221 52.2512 9.09446C51.9704 8.59508 51.5592 8.1813 51.0616 7.89725C50.5641 7.6132 49.9987 7.46954 49.4259 7.48159C45.4631 7.48159 43.0191 14.3287 41.62 20.4723C40.1465 20.1688 38.6266 20.1688 37.1531 20.4723C35.754 14.3287 33.31 7.48159 29.3472 7.48159C28.7748 7.46907 28.2098 7.61201 27.7123 7.89519C27.2148 8.17837 26.8034 8.59118 26.5219 9.08968C25.2951 11.1173 25.6141 14.5138 26.0927 17.0057C26.7581 20.2916 27.8613 23.4733 29.3727 26.4659C28.8333 27.5592 28.4765 28.7335 28.3166 29.9421C27.5174 30.6576 26.8708 31.5268 26.4153 32.4979C26.138 33.0891 25.935 33.7108 25.8098 34.3485ZM36.2461 32.9359C36.4214 32.6735 36.515 32.3651 36.515 32.0496C36.515 31.6264 36.3469 31.2207 36.0477 30.9215C35.7485 30.6223 35.3427 30.4542 34.9196 30.4542C34.6041 30.4542 34.2957 30.5478 34.0333 30.7231C33.771 30.8984 33.5665 31.1475 33.4458 31.439C33.325 31.7306 33.2934 32.0513 33.355 32.3608C33.4165 32.6702 33.5685 32.9545 33.7916 33.1776C34.0147 33.4007 34.2989 33.5527 34.6084 33.6142C34.9179 33.6758 35.2386 33.6442 35.5301 33.5234C35.8217 33.4027 36.0708 33.1982 36.2461 32.9359ZM42.9671 30.7231C43.2295 30.5478 43.5379 30.4542 43.8534 30.4542C44.2766 30.4542 44.6823 30.6223 44.9815 30.9215C45.2807 31.2207 45.4488 31.6264 45.4488 32.0496C45.4488 32.3651 45.3552 32.6735 45.1799 32.9359C45.0046 33.1982 44.7555 33.4027 44.4639 33.5234C44.1724 33.6442 43.8517 33.6758 43.5422 33.6142C43.2327 33.5527 42.9485 33.4007 42.7254 33.1776C42.5023 32.9545 42.3503 32.6702 42.2888 32.3608C42.2272 32.0513 42.2588 31.7306 42.3796 31.439C42.5003 31.1475 42.7048 30.8984 42.9671 30.7231Z" fill="#E2E7E9"/>
<path d="M6.16326 20.7956C6.0566 20.6446 5.99955 20.4641 6.00001 20.2792C6.00047 20.0943 6.05842 19.9142 6.16583 19.7637C6.27727 19.6111 6.43158 19.4954 6.60988 19.432L7.78686 19.0489C8.08187 18.9505 8.34997 18.785 8.57001 18.5653C8.79004 18.3456 8.95597 18.0778 9.0547 17.7829L9.44046 16.5907C9.50428 16.4144 9.62182 16.2626 9.7765 16.1567C9.93118 16.0508 10.1152 15.996 10.3027 16.0002C10.4901 16.0043 10.6715 16.0672 10.8213 16.1799C10.9712 16.2926 11.0818 16.4495 11.1378 16.6284L11.5218 17.8069C11.62 18.102 11.7855 18.3703 12.0053 18.5904C12.225 18.8106 12.493 18.9766 12.7879 19.0754L13.9778 19.4628C14.1531 19.5252 14.3046 19.6407 14.4112 19.7931C14.5178 19.9456 14.5742 20.1275 14.5726 20.3135C14.571 20.4996 14.5114 20.6805 14.4022 20.8311C14.293 20.9817 14.1395 21.0945 13.9632 21.1539L12.7631 21.5456C12.476 21.6439 12.215 21.8061 11.9997 22.0198C11.7844 22.2336 11.6204 22.4935 11.5201 22.7798L11.1369 23.9711C11.0744 24.1463 10.9589 24.2977 10.8064 24.4043C10.6539 24.5108 10.472 24.5673 10.286 24.5658C10.0999 24.5643 9.91896 24.5049 9.76822 24.3959C9.61748 24.2868 9.50442 24.1336 9.44474 23.9574L9.06327 22.7798C8.96483 22.4832 8.79813 22.2138 8.57658 21.9933C8.35504 21.7729 8.08484 21.6075 7.78771 21.5104L6.59531 21.123C6.42043 21.0613 6.26956 20.9465 6.16326 20.7956Z" fill="#E2E7E9"/>
<path d="M70.0075 33.5993C70.023 33.7022 70.0623 33.8002 70.1222 33.8853C70.2021 33.9979 70.315 34.0829 70.4454 34.1285L71.0902 34.3392C71.2227 34.3817 71.3426 34.455 71.4417 34.554C71.54 34.6523 71.6142 34.7722 71.6592 34.9055L71.8649 35.5409C71.9085 35.6738 71.9927 35.7896 72.1058 35.872C72.2188 35.9544 72.3549 35.9991 72.4948 35.9999C72.6348 36.0006 72.7713 35.9573 72.8853 35.8761C72.9992 35.7949 73.0846 35.68 73.1295 35.5475L73.3395 34.9038C73.3847 34.7742 73.4593 34.6567 73.5574 34.5607C73.6556 34.4646 73.7746 34.3925 73.9051 34.35L74.5399 34.1443C74.673 34.101 74.789 34.017 74.8716 33.9041C74.9541 33.7911 74.9991 33.6551 75 33.5153C75.0009 33.3754 74.9578 33.2388 74.8767 33.1249C74.7956 33.0109 74.6807 32.9253 74.5483 32.8802L73.9043 32.6704C73.7729 32.6259 73.6535 32.5517 73.5555 32.4534C73.4575 32.3552 73.3836 32.2356 73.3395 32.1041L73.1312 31.4679C73.0894 31.3339 73.0064 31.2165 72.894 31.1325C72.7815 31.0485 72.6454 31.0021 72.505 31C72.3646 30.9978 72.2272 31.0401 72.1122 31.1207C71.9973 31.2013 71.9108 31.3161 71.8649 31.4487L71.655 32.0916C71.6117 32.2232 71.5384 32.3431 71.4384 32.4414C71.3397 32.5391 71.2201 32.6132 71.0885 32.6579L70.4537 32.8644C70.3552 32.8982 70.2658 32.9544 70.1928 33.0286C70.1197 33.1028 70.065 33.193 70.0328 33.2921C70.0006 33.3911 69.992 33.4963 70.0075 33.5993Z" fill="#E2E7E9"/>
</svg>
